<svg width="1294" height="212" viewBox="0 0 1294 212" fill="none" xmlns="http://www.w3.org/2000/svg">
<mask id="mask0_469_2" style="mask-type:luminance" maskUnits="userSpaceOnUse" x="0" y="0" width="161" height="211">
<path d="M0 0H160.033V210.752H0V0Z" fill="white"/>
</mask>
<g mask="url(#mask0_469_2)">
<mask id="mask1_469_2" style="mask-type:luminance" maskUnits="userSpaceOnUse" x="-52" y="0" width="211" height="210">
<path d="M53.5528 0.385498L158.22 105.084L53.5528 209.773L-51.125 105.084L53.5528 0.385498Z" fill="white"/>
</mask>
<g mask="url(#mask1_469_2)">
<mask id="mask2_469_2" style="mask-type:luminance" maskUnits="userSpaceOnUse" x="-52" y="0" width="211" height="210">
<path d="M53.5528 0.385498L158.22 105.084L53.5528 209.773L-51.125 105.084L53.5528 0.385498Z" fill="white"/>
</mask>
<g mask="url(#mask2_469_2)">
<path d="M158.21 105.074L105.876 157.418L105.866 52.7193L158.21 105.074ZM53.5529 0.385498L53.532 105.063L105.866 52.7193L53.5529 0.385498ZM53.5529 209.752L105.876 157.418L53.532 105.063L53.5529 209.752ZM1.20874 157.397L53.532 105.063L1.21916 52.7297L1.20874 157.397Z" fill="#00B0FF"/>
</g>
</g>
</g>
<path d="M210.435 211.388V50.0194H239.934L242.211 61.4027H243.394C246.239 57.4641 250.587 54.2085 256.414 51.6586C262.241 49.0632 268.933 47.7428 276.536 47.7428C286.369 47.7428 295.382 50.2926 303.577 55.3923C311.771 60.4465 318.281 67.5496 323.152 76.7017C328 85.8766 330.436 96.3264 330.436 108.028C330.436 119.685 328 130.112 323.152 139.264C318.281 148.439 311.771 155.565 303.577 160.664C295.382 165.719 286.369 168.223 276.536 168.223C269.434 168.223 263.106 166.993 257.598 164.58C252.067 162.167 248.151 159.526 245.853 156.657H244.76V211.388H210.435ZM270.435 136.623C277.833 136.623 283.956 134.028 288.827 128.791C293.675 123.578 296.111 116.657 296.111 108.028C296.111 99.3543 293.675 92.4561 288.827 87.3564C283.956 82.2112 277.833 79.6158 270.435 79.6158C262.969 79.6158 256.801 82.2112 251.953 87.3564C247.15 92.4561 244.76 99.3543 244.76 108.028C244.76 116.657 247.15 123.578 251.953 128.791C256.801 134.028 262.969 136.623 270.435 136.623Z" fill="#454B69"/>
<path d="M347.426 165.946V6.85437H381.751V60.2189H382.934C385.165 57.0771 389.035 54.2086 394.497 51.6587C399.96 49.0634 406.083 47.7429 412.889 47.7429C421.675 47.7429 429.505 49.7463 436.379 53.7532C443.299 57.7601 448.671 63.4517 452.495 70.7825C456.364 78.1361 458.322 86.6735 458.322 96.372V165.946H423.997V102.109C423.997 95.7346 422.039 90.5438 418.17 86.5369C414.346 82.53 409.247 80.5266 402.874 80.5266C396.5 80.5266 391.356 82.53 387.487 86.5369C383.663 90.5438 381.751 95.7346 381.751 102.109V165.946H347.426Z" fill="#454B69"/>
<path d="M513.148 165.946H478.823V50.0197H513.148V165.946ZM514.059 33.1726H478.186V3.39404H514.059V33.1726Z" fill="#454B69"/>
<path d="M579.432 168.223C566.867 168.223 556.624 166.06 548.749 161.757C540.919 157.454 535.274 152.355 531.814 146.458C528.4 140.516 526.715 134.961 526.715 129.793H560.13C560.13 133.026 561.769 135.872 565.046 138.353C568.324 140.858 573.104 142.087 579.432 142.087C585.669 142.087 590.267 141.154 593.18 139.264C596.139 137.397 597.641 135.075 597.641 132.343C597.641 129.429 596.64 127.152 594.637 125.513C592.679 123.828 589.219 122.599 584.257 121.87L566.958 119.138C540.418 115.018 527.171 103.475 527.171 84.5334C527.171 77.9311 529.128 71.8297 533.089 66.2291C537.026 60.5831 542.854 56.0981 550.57 52.7514C558.332 49.4275 567.596 47.7428 578.339 47.7428C589.265 47.7428 598.575 49.7007 606.291 53.571C613.984 57.3958 619.811 62.2678 623.772 68.1415C627.71 73.9697 629.69 79.6841 629.69 85.2619H596.549C596.549 82.234 594.91 79.5931 591.632 77.3392C588.355 75.0398 583.916 73.8787 578.339 73.8787C572.876 73.8787 568.643 74.9259 565.684 76.9749C562.77 79.0467 561.313 81.4144 561.313 84.078C561.313 88.5175 565.706 91.4088 574.515 92.7293L592.634 95.4613C618.537 99.286 631.511 111.443 631.511 131.888C631.511 138.513 629.554 144.614 625.684 150.192C621.86 155.724 616.033 160.118 608.203 163.396C600.418 166.606 590.836 168.223 579.432 168.223Z" fill="#454B69"/>
<path d="M647.402 165.946V6.85437H681.727V60.2189H682.911C685.142 57.0771 689.011 54.2086 694.474 51.6587C699.937 49.0634 706.06 47.7429 712.866 47.7429C721.652 47.7429 729.482 49.7463 736.356 53.7532C743.275 57.7601 748.647 63.4517 752.471 70.7825C756.341 78.1361 758.298 86.6735 758.298 96.372V165.946H723.973V102.109C723.973 95.7346 722.016 90.5438 718.146 86.5369C714.322 82.53 709.224 80.5266 702.85 80.5266C696.477 80.5266 691.333 82.53 687.463 86.5369C683.639 90.5438 681.727 95.7346 681.727 102.109V165.946H647.402Z" fill="#454B69"/>
<path d="M846.084 168.223C838.299 168.223 831.562 166.948 825.871 164.398C820.226 161.803 815.879 158.524 812.851 154.563H811.759L809.483 165.946H779.892V6.85437H814.217V60.0368H815.401C817.813 57.0088 821.797 54.2086 827.328 51.6587C832.836 49.0634 839.096 47.7429 846.084 47.7429C855.917 47.7429 864.885 50.2927 873.034 55.3924C881.228 60.4466 887.738 67.5497 892.609 76.7018C897.457 85.8767 899.893 96.3265 899.893 108.028C899.893 119.685 897.457 130.112 892.609 139.264C887.738 148.439 881.228 155.565 873.034 160.664C864.885 165.719 855.917 168.223 846.084 168.223ZM839.892 136.623C847.29 136.623 853.413 134.028 858.284 128.791C863.132 123.578 865.568 116.657 865.568 108.028C865.568 99.3544 863.132 92.4562 858.284 87.3565C853.413 82.2113 847.29 79.6159 839.892 79.6159C832.472 79.6159 826.349 82.2113 821.501 87.3565C816.63 92.4562 814.217 99.3544 814.217 108.028C814.217 116.657 816.63 123.578 821.501 128.791C826.349 134.028 832.472 136.623 839.892 136.623Z" fill="#454B69"/>
<path d="M952.618 168.223C943.991 168.223 936.457 166.629 930.038 163.487C923.596 160.277 918.657 155.997 915.197 150.647C911.783 145.251 910.098 139.218 910.098 132.525C910.098 121.005 914.196 111.762 922.39 104.841C930.584 97.8745 942.42 94.3685 957.898 94.3685H983.301V92.274C983.301 87.3109 981.662 83.2129 978.384 79.9801C975.152 76.7017 970.964 75.0625 965.819 75.0625C961.131 75.0625 957.443 76.1098 954.712 78.1588C951.98 80.1622 950 82.5299 948.794 85.2619H915.106C915.88 78.8873 918.338 72.8314 922.481 67.0487C926.669 61.2888 932.428 56.6445 939.78 53.1157C947.109 49.5413 955.804 47.7428 965.819 47.7428C976.244 47.7428 985.349 49.7235 993.134 53.6621C1000.96 57.6234 1007 62.9508 1011.25 69.6896C1015.49 76.4285 1017.63 83.9642 1017.63 92.274V165.946H987.853L985.577 155.929H984.484C981.867 159.162 977.701 162.008 972.011 164.489C966.366 166.971 959.901 168.223 952.618 168.223ZM960.083 141.632C967.367 141.632 973.035 139.674 977.109 135.712C981.229 131.774 983.301 126.469 983.301 119.776V117.044H962.36C956.464 117.044 952.026 118.182 949.067 120.413C946.153 122.599 944.696 125.581 944.696 129.338C944.696 133.162 945.994 136.168 948.611 138.353C951.275 140.539 955.099 141.632 960.083 141.632Z" fill="#454B69"/>
<path d="M1082.16 165.946C1071.1 165.946 1062.7 163.214 1056.94 157.75C1051.16 152.286 1048.29 144.5 1048.29 134.346V82.5298H1030.08V50.0193H1048.29V14.1394H1082.62V50.0193H1108.75V82.5298H1082.62V127.061C1082.62 129.975 1083.21 132.047 1084.44 133.253C1085.65 134.483 1087.67 135.075 1090.54 135.075H1108.75V165.946H1082.16Z" fill="#454B69"/>
<path d="M1182.13 168.223C1170.66 168.223 1160.28 165.627 1150.99 160.391C1141.75 155.178 1134.47 147.983 1129.14 138.809C1123.86 129.656 1121.22 119.389 1121.22 108.028C1121.22 96.6223 1123.86 86.3319 1129.14 77.157C1134.47 68.0049 1141.75 60.8107 1150.99 55.5745C1160.28 50.3609 1170.66 47.7428 1182.13 47.7428C1193.05 47.7428 1203 50.3382 1211.99 55.4834C1221.03 60.6514 1228.13 67.7545 1233.3 76.7928C1238.44 85.7855 1241.04 95.7345 1241.04 106.662C1241.04 110.738 1240.63 114.494 1239.85 117.955H1155.36C1156.27 124.329 1159.21 129.679 1164.19 133.982C1169.15 138.308 1175.14 140.448 1182.13 140.448C1187.27 140.448 1191.69 139.492 1195.33 137.534C1198.97 135.598 1201.7 133.572 1203.52 131.432H1238.03C1236.51 136.532 1233.48 141.905 1228.93 147.551C1224.42 153.151 1218.21 158.001 1210.26 162.121C1202.3 166.174 1192.92 168.223 1182.13 168.223ZM1207.17 97.2826C1206.26 90.908 1203.52 85.6262 1198.97 81.4371C1194.42 77.2026 1188.8 75.0625 1182.13 75.0625C1175.03 75.0625 1169.11 77.2026 1164.37 81.4371C1159.69 85.6262 1156.68 90.908 1155.36 97.2826H1207.17Z" fill="#454B69"/>
<path d="M1294 165.946H1256.03V128.427H1294V165.946Z" fill="#454B69"/>
</svg>
